Coordinates
version=1
nRows=18
nColumns=22
inDegrees=yes

Units are S.I. units (second, meters, Newtons, ...)
If the header above contains a line with 'inDegrees', this indicates whether rotational values are in degrees (yes) or radians (no).

endheader
time	pelvis_tilt	pelvis_list	pelvis_rotation	pelvis_tx	pelvis_ty	pelvis_tz	hip_flexion_r	hip_adduction_r	hip_rotation_r	knee_angle_r	ankle_angle_r	subtalar_angle_r	hip_flexion_l	hip_adduction_l	hip_rotation_l	knee_angle_l	ankle_angle_l	subtalar_angle_l	lumbar_extension	lumbar_bending	lumbar_rotation
      1.14000000	     -2.11879744	     -5.89002657	     -1.48677336	     -1.06622085	      0.92882982	      0.81568567	     -1.65604591	     10.13548913	    -12.66645610	    -11.71361650	     15.10491336	     -0.70881418	     19.78400127	    -12.95835153	      1.05671022	    -50.76498669	      9.44647177	     -6.50867134	    -11.37916209	      4.53955771	     -2.30891259
      1.15000000	     -1.95885832	     -5.84051131	     -1.48362372	     -1.06447088	      0.92867899	      0.81674846	     -1.90862186	     10.13521630	    -12.64844518	    -11.79722291	     15.18419541	     -0.69798503	     20.80770414	    -12.54829300	      1.81405351	    -52.61941367	      8.66476586	     -7.12313226	    -11.82445775	      4.48508018	     -2.01444324
      1.16000000	     -1.81433791	     -5.74746208	     -1.51706374	     -1.06262161	      0.92851716	      0.81770730	     -2.12873191	     10.07034586	    -12.59708869	    -11.92967152	     15.37338368	     -0.65918780	     21.78976850	    -12.03361195	      2.49371974	    -54.30284461	      8.05647421	     -7.49477832	    -12.24634454	      4.39178917	     -1.67987167
      1.17000000	     -1.68113849	     -5.59988228	     -1.57620714	     -1.06065442	      0.92838135	      0.81854608	     -2.32914218	      9.92958971	    -12.53850999	    -12.09140842	     15.58451559	     -0.60134897	     22.71162197	    -11.39873118	      3.09539316	    -55.76463168	      7.59970189	     -7.53787097	    -12.64752956	      4.24518313	     -1.32278796
      1.18000000	     -1.59866347	     -5.40615424	     -1.65693347	     -1.05857939	      0.92820303	      0.81926988	     -2.46467488	      9.72490018	    -12.47348958	    -12.28351495	     15.82966843	     -0.50862189	     23.62092182	    -10.65918632	      3.62046997	    -56.98856186	      7.26857169	     -7.14769264	    -12.97963334	      4.05803291	     -0.96619172
      1.19000000	     -1.50496628	     -5.14448265	     -1.77393220	     -1.05636505	      0.92810472	      0.81991057	     -2.58422264	      9.42096345	    -12.46561085	    -12.54517718	     16.09133376	     -0.41510933	     24.42887010	     -9.82680556	      3.98909402	    -57.92990634	      6.99645670	     -6.56773348	    -13.31774641	      3.79488187	     -0.57349644
      1.20000000	     -1.45020450	     -4.88276694	     -1.89773257	     -1.05396248	      0.92796397	      0.82052833	     -2.70171909	      9.12382051	    -12.38956269	    -12.75036468	     16.33232662	     -0.29554998	     25.21976581	     -8.98875096	      4.25890810	    -58.61804564	      6.80518641	     -5.59856663	    -13.58383716	      3.52999530	     -0.19319502
      1.21000000	     -1.40130369	     -4.57752121	     -2.04796693	     -1.05139133	      0.92784230	      0.82113056	     -2.79533036	      8.76596118	    -12.33538221	    -13.00825376	     16.60913761	     -0.18609585	     25.94402598	     -8.12963672	      4.35667998	    -59.02751860	      6.65057518	     -4.70766799	    -13.82800911	      3.21009893	      0.19549631
      1.22000000	     -1.37158024	     -4.26262667	     -2.21043977	     -1.04865750	      0.92769976	      0.82175038	     -2.86644210	      8.39613433	    -12.26221445	    -13.28710921	     16.85696209	     -0.08001947	     26.63359632	     -7.29982582	      4.31380082	    -59.17634348	      6.54770405	     -3.81120415	    -14.03276467	      2.87178734	      0.57281650
      1.23000000	     -1.36716016	     -3.94829480	     -2.37662944	     -1.04570803	      0.92750570	      0.82241880	     -2.93781970	      8.03238705	    -12.19548466	    -13.53575023	     17.13355390	      0.02686974	     27.30258603	     -6.53236446	      4.12769920	    -59.08102973	      6.48056811	     -3.03619449	    -14.18032789	      2.52266064	      0.95007054
      1.24000000	     -1.37858861	     -3.64903841	     -2.53921004	     -1.04261139	      0.92727189	      0.82313621	     -2.99849573	      7.69087829	    -12.11178141	    -13.78927608	     17.37684918	      0.13401346	     27.94889774	     -5.84001338	      3.83673664	    -58.75303564	      6.45650788	     -2.35766408	    -14.29665947	      2.18012996	      1.30738087
      1.25000000	     -1.40605895	     -3.37191932	     -2.69174231	     -1.03935392	      0.92698668	      0.82390253	     -3.05911977	      7.38109868	    -12.02815346	    -14.02903486	     17.60494167	      0.24710964	     28.57507757	     -5.23396439	      3.45699225	    -58.20689830	      6.46485127	     -1.81825229	    -14.37886129	      1.85327876	      1.65126994
      1.26000000	     -1.44344506	     -3.11723262	     -2.83773652	     -1.03594551	      0.92665173	      0.82473152	     -3.13325447	      7.10548011	    -11.94317834	    -14.24180015	     17.83436020	      0.33926784	     29.17474656	     -4.72213549	      2.98669866	    -57.45757239	      6.51487012	     -1.56827608	    -14.43755729	      1.53898718	      1.98584254
      1.27000000	     -1.49829999	     -2.89134616	     -2.94829890	     -1.03239233	      0.92625011	      0.82556762	     -3.22125869	      6.87455890	    -11.86154985	    -14.41167097	     18.03536406	      0.45339539	     29.76051914	     -4.28226035	      2.49573606	    -56.51752590	      6.56461512	     -1.34400518	    -14.46430376	      1.25378523	      2.27052386
      1.28000000	     -1.56133165	     -2.69282748	     -3.03065130	     -1.02870845	      0.92579151	      0.82641469	     -3.33109086	      6.68527654	    -11.78496220	    -14.54141158	     18.20932160	      0.56576958	     30.31921945	     -3.91047711	      1.98590257	    -55.40062802	      6.62586844	     -1.23673532	    -14.47672088	      0.99424632	      2.51712557
      1.29000000	     -1.63429292	     -2.52014126	     -3.07167063	     -1.02489149	      0.92527158	      0.82722298	     -3.46416252	      6.53732539	    -11.69413712	    -14.62621367	     18.33135743	      0.65254499	     30.85119111	     -3.58437315	      1.48757254	    -54.11745043	      6.70568934	     -1.24257461	    -14.47135861	      0.76657919	      2.70035208
      1.30000000	     -1.70355224	     -2.37096911	     -3.09578239	     -1.02094218	      0.92469456	      0.82802440	     -3.62877016	      6.41876137	    -11.62695009	    -14.68047025	     18.48937320	      0.74099357	     31.34400328	     -3.31606715	      0.96436624	    -52.69219881	      6.75201895	     -1.35200277	    -14.46798681	      0.56048952	      2.87895503
      1.31000000	     -1.73935119	     -2.23253802	     -3.09738686	     -1.01682797	      0.92411221	      0.82878160	     -3.87038454	      6.31462824	    -11.57570705	    -14.68215453	     18.69015699	      0.86656482	     31.75820067	     -3.07952515	      0.40901877	    -51.13226881	      6.79450427	     -1.76380662	    -14.49889349	      0.36414589	      3.04649835
